<mxfile host="app.diagrams.net" modified="2023-12-19T13:18:12.065Z" agent="Mozilla/5.0 (Windows NT 10.0; Win64; x64) AppleWebKit/537.36 (KHTML, like Gecko) Chrome/120.0.0.0 Safari/537.36 Edg/120.0.0.0" etag="ZryqR6cAWFKNLL0tjqjQ" version="22.1.11" type="github">
  <diagram name="第 1 页" id="aMvRElPCNiSqlpsM78AC">
    <mxGraphModel dx="1179" dy="1808" grid="1" gridSize="10" guides="1" tooltips="1" connect="1" arrows="1" fold="1" page="1" pageScale="1" pageWidth="827" pageHeight="1169" math="0" shadow="0">
      <root>
        <mxCell id="0" />
        <mxCell id="1" parent="0" />
        <mxCell id="v_yzebvkAkZ8xxIpkDXC-5" style="edgeStyle=orthogonalEdgeStyle;rounded=0;orthogonalLoop=1;jettySize=auto;html=1;endArrow=classic;endFill=1;" edge="1" parent="1" source="v_yzebvkAkZ8xxIpkDXC-15">
          <mxGeometry relative="1" as="geometry">
            <Array as="points">
              <mxPoint x="135" y="205" />
              <mxPoint x="135" y="425" />
            </Array>
            <mxPoint x="705" y="250" as="targetPoint" />
          </mxGeometry>
        </mxCell>
        <mxCell id="v_yzebvkAkZ8xxIpkDXC-21" value="Pool" style="swimlane;childLayout=stackLayout;resizeParent=1;resizeParentMax=0;startSize=20;html=1;fontSize=21;" vertex="1" parent="1">
          <mxGeometry x="150" y="-260" width="900" height="890" as="geometry" />
        </mxCell>
        <mxCell id="v_yzebvkAkZ8xxIpkDXC-22" value="管理员" style="swimlane;startSize=20;html=1;fontSize=21;" vertex="1" parent="v_yzebvkAkZ8xxIpkDXC-21">
          <mxGeometry y="20" width="210" height="870" as="geometry" />
        </mxCell>
        <mxCell id="v_yzebvkAkZ8xxIpkDXC-25" value="开始" style="strokeWidth=2;html=1;shape=mxgraph.flowchart.start_1;whiteSpace=wrap;fontSize=20;" vertex="1" parent="v_yzebvkAkZ8xxIpkDXC-22">
          <mxGeometry x="25" y="40" width="160" height="60" as="geometry" />
        </mxCell>
        <mxCell id="v_yzebvkAkZ8xxIpkDXC-50" style="edgeStyle=orthogonalEdgeStyle;rounded=0;orthogonalLoop=1;jettySize=auto;html=1;exitX=0.5;exitY=1;exitDx=0;exitDy=0;entryX=0.5;entryY=0;entryDx=0;entryDy=0;" edge="1" parent="v_yzebvkAkZ8xxIpkDXC-22" source="v_yzebvkAkZ8xxIpkDXC-28" target="v_yzebvkAkZ8xxIpkDXC-32">
          <mxGeometry relative="1" as="geometry" />
        </mxCell>
        <mxCell id="v_yzebvkAkZ8xxIpkDXC-28" value="编辑任务" style="rounded=1;whiteSpace=wrap;html=1;absoluteArcSize=1;arcSize=14;strokeWidth=2;fontSize=20;" vertex="1" parent="v_yzebvkAkZ8xxIpkDXC-22">
          <mxGeometry x="30" y="160" width="150" height="50" as="geometry" />
        </mxCell>
        <mxCell id="v_yzebvkAkZ8xxIpkDXC-32" value="发布任务" style="rounded=1;whiteSpace=wrap;html=1;absoluteArcSize=1;arcSize=14;strokeWidth=2;fontSize=20;" vertex="1" parent="v_yzebvkAkZ8xxIpkDXC-22">
          <mxGeometry x="30" y="260" width="150" height="50" as="geometry" />
        </mxCell>
        <mxCell id="v_yzebvkAkZ8xxIpkDXC-49" style="edgeStyle=orthogonalEdgeStyle;rounded=0;orthogonalLoop=1;jettySize=auto;html=1;" edge="1" parent="v_yzebvkAkZ8xxIpkDXC-22" source="v_yzebvkAkZ8xxIpkDXC-44" target="v_yzebvkAkZ8xxIpkDXC-45">
          <mxGeometry relative="1" as="geometry" />
        </mxCell>
        <mxCell id="v_yzebvkAkZ8xxIpkDXC-44" value="确定结果" style="rounded=1;whiteSpace=wrap;html=1;absoluteArcSize=1;arcSize=14;strokeWidth=2;fontSize=20;" vertex="1" parent="v_yzebvkAkZ8xxIpkDXC-22">
          <mxGeometry x="30" y="540" width="150" height="50" as="geometry" />
        </mxCell>
        <mxCell id="v_yzebvkAkZ8xxIpkDXC-45" value="公布结果" style="rounded=1;whiteSpace=wrap;html=1;absoluteArcSize=1;arcSize=14;strokeWidth=2;fontSize=20;" vertex="1" parent="v_yzebvkAkZ8xxIpkDXC-22">
          <mxGeometry x="25" y="670" width="160" height="50" as="geometry" />
        </mxCell>
        <mxCell id="v_yzebvkAkZ8xxIpkDXC-54" value="结束" style="strokeWidth=2;html=1;shape=mxgraph.flowchart.start_1;whiteSpace=wrap;fontSize=20;" vertex="1" parent="v_yzebvkAkZ8xxIpkDXC-22">
          <mxGeometry x="30" y="765" width="150" height="60" as="geometry" />
        </mxCell>
        <mxCell id="v_yzebvkAkZ8xxIpkDXC-55" style="edgeStyle=orthogonalEdgeStyle;rounded=0;orthogonalLoop=1;jettySize=auto;html=1;exitX=0.5;exitY=1;exitDx=0;exitDy=0;entryX=0.5;entryY=0;entryDx=0;entryDy=0;entryPerimeter=0;" edge="1" parent="v_yzebvkAkZ8xxIpkDXC-22" source="v_yzebvkAkZ8xxIpkDXC-45" target="v_yzebvkAkZ8xxIpkDXC-54">
          <mxGeometry relative="1" as="geometry" />
        </mxCell>
        <mxCell id="v_yzebvkAkZ8xxIpkDXC-23" value="服务" style="swimlane;startSize=20;html=1;fontSize=21;" vertex="1" parent="v_yzebvkAkZ8xxIpkDXC-21">
          <mxGeometry x="210" y="20" width="240" height="870" as="geometry" />
        </mxCell>
        <mxCell id="v_yzebvkAkZ8xxIpkDXC-30" style="edgeStyle=orthogonalEdgeStyle;rounded=0;orthogonalLoop=1;jettySize=auto;html=1;exitX=0.5;exitY=1;exitDx=0;exitDy=0;entryX=0.5;entryY=0;entryDx=0;entryDy=0;fontSize=20;" edge="1" parent="v_yzebvkAkZ8xxIpkDXC-23" source="v_yzebvkAkZ8xxIpkDXC-26" target="v_yzebvkAkZ8xxIpkDXC-27">
          <mxGeometry relative="1" as="geometry" />
        </mxCell>
        <mxCell id="v_yzebvkAkZ8xxIpkDXC-26" value="不文明行为数据产生" style="rounded=1;whiteSpace=wrap;html=1;absoluteArcSize=1;arcSize=14;strokeWidth=2;fontSize=20;" vertex="1" parent="v_yzebvkAkZ8xxIpkDXC-23">
          <mxGeometry x="40" y="37.5" width="160" height="65" as="geometry" />
        </mxCell>
        <mxCell id="v_yzebvkAkZ8xxIpkDXC-27" value="不文明行为报告" style="rounded=1;whiteSpace=wrap;html=1;absoluteArcSize=1;arcSize=14;strokeWidth=2;fontSize=20;" vertex="1" parent="v_yzebvkAkZ8xxIpkDXC-23">
          <mxGeometry x="35" y="160" width="170" height="50" as="geometry" />
        </mxCell>
        <mxCell id="v_yzebvkAkZ8xxIpkDXC-33" value="任务分配" style="rounded=1;whiteSpace=wrap;html=1;absoluteArcSize=1;arcSize=14;strokeWidth=2;fontSize=20;fillColor=#d5e8d4;strokeColor=#82b366;" vertex="1" parent="v_yzebvkAkZ8xxIpkDXC-23">
          <mxGeometry x="35" y="260" width="160" height="50" as="geometry" />
        </mxCell>
        <mxCell id="v_yzebvkAkZ8xxIpkDXC-43" value="信息整合分析" style="rounded=1;whiteSpace=wrap;html=1;absoluteArcSize=1;arcSize=14;strokeWidth=2;fontSize=20;fillColor=#6a00ff;fontColor=#ffffff;strokeColor=#3700CC;" vertex="1" parent="v_yzebvkAkZ8xxIpkDXC-23">
          <mxGeometry x="35" y="540" width="170" height="50" as="geometry" />
        </mxCell>
        <mxCell id="v_yzebvkAkZ8xxIpkDXC-29" style="edgeStyle=orthogonalEdgeStyle;rounded=0;orthogonalLoop=1;jettySize=auto;html=1;exitX=1;exitY=0.5;exitDx=0;exitDy=0;exitPerimeter=0;entryX=0;entryY=0.5;entryDx=0;entryDy=0;fontSize=20;" edge="1" parent="v_yzebvkAkZ8xxIpkDXC-21" source="v_yzebvkAkZ8xxIpkDXC-25" target="v_yzebvkAkZ8xxIpkDXC-26">
          <mxGeometry relative="1" as="geometry" />
        </mxCell>
        <mxCell id="v_yzebvkAkZ8xxIpkDXC-24" value="用户" style="swimlane;startSize=20;html=1;fontSize=21;" vertex="1" parent="v_yzebvkAkZ8xxIpkDXC-21">
          <mxGeometry x="450" y="20" width="450" height="870" as="geometry" />
        </mxCell>
        <mxCell id="v_yzebvkAkZ8xxIpkDXC-34" value="查看任务" style="rounded=1;whiteSpace=wrap;html=1;absoluteArcSize=1;arcSize=14;strokeWidth=2;fontSize=20;" vertex="1" parent="v_yzebvkAkZ8xxIpkDXC-24">
          <mxGeometry x="30" y="260" width="150" height="50" as="geometry" />
        </mxCell>
        <mxCell id="v_yzebvkAkZ8xxIpkDXC-36" value="判断是否认识不文明人" style="strokeWidth=2;html=1;shape=mxgraph.flowchart.decision;whiteSpace=wrap;fontSize=20;" vertex="1" parent="v_yzebvkAkZ8xxIpkDXC-24">
          <mxGeometry x="30" y="340" width="160" height="130" as="geometry" />
        </mxCell>
        <mxCell id="v_yzebvkAkZ8xxIpkDXC-53" style="edgeStyle=orthogonalEdgeStyle;rounded=0;orthogonalLoop=1;jettySize=auto;html=1;exitX=0.5;exitY=0;exitDx=0;exitDy=0;entryX=1;entryY=0.5;entryDx=0;entryDy=0;" edge="1" parent="v_yzebvkAkZ8xxIpkDXC-24" source="v_yzebvkAkZ8xxIpkDXC-37" target="v_yzebvkAkZ8xxIpkDXC-34">
          <mxGeometry relative="1" as="geometry" />
        </mxCell>
        <mxCell id="v_yzebvkAkZ8xxIpkDXC-37" value="拒绝任务" style="rounded=1;whiteSpace=wrap;html=1;absoluteArcSize=1;arcSize=14;strokeWidth=2;fontSize=20;" vertex="1" parent="v_yzebvkAkZ8xxIpkDXC-24">
          <mxGeometry x="260" y="380" width="150" height="50" as="geometry" />
        </mxCell>
        <mxCell id="v_yzebvkAkZ8xxIpkDXC-46" value="否" style="edgeStyle=orthogonalEdgeStyle;rounded=0;orthogonalLoop=1;jettySize=auto;html=1;exitX=1;exitY=0.5;exitDx=0;exitDy=0;exitPerimeter=0;entryX=0;entryY=0.5;entryDx=0;entryDy=0;fontSize=20;" edge="1" parent="v_yzebvkAkZ8xxIpkDXC-24" source="v_yzebvkAkZ8xxIpkDXC-36" target="v_yzebvkAkZ8xxIpkDXC-37">
          <mxGeometry relative="1" as="geometry" />
        </mxCell>
        <mxCell id="v_yzebvkAkZ8xxIpkDXC-38" style="edgeStyle=orthogonalEdgeStyle;rounded=0;orthogonalLoop=1;jettySize=auto;html=1;exitX=0.5;exitY=1;exitDx=0;exitDy=0;entryX=0.5;entryY=0;entryDx=0;entryDy=0;entryPerimeter=0;fontSize=20;" edge="1" parent="v_yzebvkAkZ8xxIpkDXC-24" source="v_yzebvkAkZ8xxIpkDXC-34" target="v_yzebvkAkZ8xxIpkDXC-36">
          <mxGeometry relative="1" as="geometry" />
        </mxCell>
        <mxCell id="v_yzebvkAkZ8xxIpkDXC-35" value="提交相关信息" style="rounded=1;whiteSpace=wrap;html=1;absoluteArcSize=1;arcSize=14;strokeWidth=2;fontSize=20;fillColor=#fff2cc;strokeColor=#d6b656;" vertex="1" parent="v_yzebvkAkZ8xxIpkDXC-24">
          <mxGeometry x="30" y="540" width="160" height="50" as="geometry" />
        </mxCell>
        <mxCell id="v_yzebvkAkZ8xxIpkDXC-40" style="edgeStyle=orthogonalEdgeStyle;rounded=0;orthogonalLoop=1;jettySize=auto;html=1;exitX=0.5;exitY=1;exitDx=0;exitDy=0;exitPerimeter=0;fontSize=20;" edge="1" parent="v_yzebvkAkZ8xxIpkDXC-24" source="v_yzebvkAkZ8xxIpkDXC-36" target="v_yzebvkAkZ8xxIpkDXC-35">
          <mxGeometry relative="1" as="geometry" />
        </mxCell>
        <mxCell id="v_yzebvkAkZ8xxIpkDXC-42" value="是" style="edgeLabel;html=1;align=center;verticalAlign=middle;resizable=0;points=[];fontSize=20;" vertex="1" connectable="0" parent="v_yzebvkAkZ8xxIpkDXC-40">
          <mxGeometry x="-0.708" y="-2" relative="1" as="geometry">
            <mxPoint as="offset" />
          </mxGeometry>
        </mxCell>
        <mxCell id="v_yzebvkAkZ8xxIpkDXC-31" style="edgeStyle=orthogonalEdgeStyle;rounded=0;orthogonalLoop=1;jettySize=auto;html=1;exitX=0;exitY=0.5;exitDx=0;exitDy=0;entryX=1;entryY=0.5;entryDx=0;entryDy=0;fontSize=20;" edge="1" parent="v_yzebvkAkZ8xxIpkDXC-21" source="v_yzebvkAkZ8xxIpkDXC-27" target="v_yzebvkAkZ8xxIpkDXC-28">
          <mxGeometry relative="1" as="geometry" />
        </mxCell>
        <mxCell id="v_yzebvkAkZ8xxIpkDXC-47" style="edgeStyle=orthogonalEdgeStyle;rounded=0;orthogonalLoop=1;jettySize=auto;html=1;entryX=1;entryY=0.5;entryDx=0;entryDy=0;" edge="1" parent="v_yzebvkAkZ8xxIpkDXC-21" source="v_yzebvkAkZ8xxIpkDXC-35" target="v_yzebvkAkZ8xxIpkDXC-43">
          <mxGeometry relative="1" as="geometry" />
        </mxCell>
        <mxCell id="v_yzebvkAkZ8xxIpkDXC-48" style="edgeStyle=orthogonalEdgeStyle;rounded=0;orthogonalLoop=1;jettySize=auto;html=1;entryX=1;entryY=0.5;entryDx=0;entryDy=0;" edge="1" parent="v_yzebvkAkZ8xxIpkDXC-21" source="v_yzebvkAkZ8xxIpkDXC-43" target="v_yzebvkAkZ8xxIpkDXC-44">
          <mxGeometry relative="1" as="geometry" />
        </mxCell>
        <mxCell id="v_yzebvkAkZ8xxIpkDXC-51" style="edgeStyle=orthogonalEdgeStyle;rounded=0;orthogonalLoop=1;jettySize=auto;html=1;exitX=1;exitY=0.5;exitDx=0;exitDy=0;entryX=0;entryY=0.5;entryDx=0;entryDy=0;" edge="1" parent="v_yzebvkAkZ8xxIpkDXC-21" source="v_yzebvkAkZ8xxIpkDXC-32" target="v_yzebvkAkZ8xxIpkDXC-33">
          <mxGeometry relative="1" as="geometry" />
        </mxCell>
        <mxCell id="v_yzebvkAkZ8xxIpkDXC-52" style="edgeStyle=orthogonalEdgeStyle;rounded=0;orthogonalLoop=1;jettySize=auto;html=1;exitX=1;exitY=0.5;exitDx=0;exitDy=0;entryX=0;entryY=0.5;entryDx=0;entryDy=0;" edge="1" parent="v_yzebvkAkZ8xxIpkDXC-21" source="v_yzebvkAkZ8xxIpkDXC-33" target="v_yzebvkAkZ8xxIpkDXC-34">
          <mxGeometry relative="1" as="geometry" />
        </mxCell>
      </root>
    </mxGraphModel>
  </diagram>
</mxfile>
